<?xml version="1.0" standalone="no"?>
<!DOCTYPE svg PUBLIC "-//W3C//DTD SVG 20010904//EN"
 "http://www.w3.org/TR/2001/REC-SVG-20010904/DTD/svg10.dtd">
<svg version="1.0" xmlns="http://www.w3.org/2000/svg"
 width="500.000000pt" height="291.000000pt" viewBox="0 0 500.000000 291.000000"
 preserveAspectRatio="xMidYMid meet">

<g transform="translate(0.000000,291.000000) scale(0.100000,-0.100000)"
fill="#000000" stroke="none">
<path d="M1127 2835 c-282 -39 -495 -133 -653 -290 -90 -89 -138 -167 -180
-290 -22 -66 -27 -104 -31 -216 -10 -247 34 -366 192 -518 154 -149 311 -241
595 -349 233 -89 279 -116 311 -186 24 -52 24 -90 0 -143 -39 -84 -185 -130
-339 -104 -135 23 -387 142 -513 243 -40 33 -65 46 -71 40 -6 -6 -90 -144
-189 -309 l-178 -298 42 -39 c127 -118 368 -226 635 -286 238 -53 652 -41 910
26 206 53 342 125 458 239 153 151 224 341 224 598 0 343 -145 554 -506 736
-73 36 -189 78 -404 146 -47 15 -122 44 -166 65 -98 45 -134 88 -134 158 0
107 60 143 245 150 183 6 373 -36 544 -123 39 -19 73 -35 76 -35 3 0 72 134
154 299 l150 299 -68 31 c-148 68 -376 131 -569 156 -137 18 -400 18 -535 0z"/>
<path d="M3633 2456 c-34 -15 -53 -42 -53 -74 0 -22 47 -66 80 -77 20 -6 28
-35 10 -35 -6 0 -26 7 -46 15 -39 16 -49 8 -42 -37 3 -21 9 -23 61 -26 52 -3
60 0 87 27 17 16 30 36 30 44 0 23 -37 63 -70 77 -37 15 -42 45 -6 36 13 -3
31 -9 39 -12 11 -4 17 4 22 26 4 17 5 33 3 35 -13 13 -87 13 -115 1z"/>
<path d="M3871 2388 c-12 -40 -28 -94 -36 -120 l-14 -48 39 0 c33 0 40 3 40
20 0 16 7 20 35 20 28 0 35 -4 35 -20 0 -17 7 -20 41 -20 34 0 40 3 35 18 -3
9 -17 63 -32 120 l-27 102 -47 0 -47 0 -22 -72z m79 -37 c8 -28 6 -31 -12 -31
-16 0 -19 5 -14 23 3 12 6 28 6 36 0 21 9 8 20 -28z"/>
<path d="M4140 2340 l0 -120 35 0 c35 0 35 0 35 45 l0 45 41 0 42 0 -6 -45 -7
-45 40 0 40 0 0 120 0 120 -40 0 -40 0 0 -45 c0 -45 0 -45 -35 -45 -35 0 -35
0 -35 45 0 45 0 45 -35 45 l-35 0 0 -120z"/>
<path d="M4460 2340 l0 -120 35 0 35 0 0 120 0 120 -35 0 -35 0 0 -120z"/>
<path d="M4640 2340 l0 -120 70 0 70 0 0 30 c0 28 -3 30 -35 30 l-35 0 0 90 0
90 -35 0 -35 0 0 -120z"/>
<path d="M4860 2360 c0 -44 3 -50 20 -50 22 0 25 5 35 63 6 36 5 37 -25 37
-29 0 -30 -1 -30 -50z"/>
<path d="M3633 2146 c-34 -15 -53 -42 -53 -74 0 -22 47 -66 80 -77 20 -6 28
-35 10 -35 -6 0 -26 7 -46 15 -39 16 -49 8 -42 -37 3 -21 9 -23 61 -26 52 -3
60 0 87 27 17 16 30 36 30 44 0 23 -37 63 -70 77 -37 15 -42 45 -6 36 13 -3
31 -9 39 -12 11 -4 17 4 22 26 4 17 5 33 3 35 -13 13 -87 13 -115 1z"/>
<path d="M4235 2153 c-80 -20 -110 -156 -48 -218 20 -19 36 -25 69 -25 85 0
124 41 124 129 0 41 -5 56 -27 80 -28 30 -77 45 -118 34z m63 -131 c-2 -47 -6
-57 -22 -60 -28 -6 -46 25 -46 74 0 49 21 69 53 53 15 -8 17 -20 15 -67z"/>
<path d="M3850 2030 l0 -120 35 0 c35 0 35 0 35 45 0 45 0 45 35 45 35 0 35 0
35 -45 l0 -45 38 0 37 0 2 120 1 120 -39 0 -39 0 0 -45 c0 -45 0 -45 -35 -45
-35 0 -35 0 -35 45 0 45 0 45 -35 45 l-35 0 0 -120z"/>
<path d="M4470 2030 l0 -120 35 0 c33 0 35 2 35 35 0 31 3 35 25 35 67 0 118
65 96 123 -14 37 -40 47 -120 47 l-71 0 0 -120z m117 54 c8 -20 -8 -48 -31
-52 -12 -3 -16 4 -16 32 0 30 4 36 20 36 11 0 23 -7 27 -16z"/>
<path d="M3005 1220 c-215 -43 -405 -231 -450 -447 -52 -246 43 -483 250 -622
106 -70 190 -95 325 -95 170 1 302 56 419 177 107 110 156 218 167 371 21 283
-173 546 -450 611 -65 16 -195 18 -261 5z"/>
</g>
</svg>
